<svg aria-hidden="true" style="position: absolute; width: 0; height: 0; overflow: hidden;" version="1.1" xmlns="http://www.w3.org/2000/svg" xmlns:xlink="http://www.w3.org/1999/xlink">
<defs>
<symbol id="file" viewBox="0 0 32 32">
<path fill="#e8f6fd" style="fill: var(--color1, #e8f6fd)" d="M9.476 3.938h-0.406c-1.537 0-2.794 1.258-2.794 2.794v19.691c0 1.537 1.258 2.794 2.794 2.794h13.931c1.537 0 2.794-1.258 2.794-2.794v-16.006c-2.519-2.52-3.959-3.959-6.479-6.479h-6.001z"></path>
<path fill="#1f212b" style="fill: var(--color2, #1f212b)" d="M23.002 29.538h-13.931c-1.717 0-3.114-1.397-3.114-3.114v-19.691c0-1.717 1.397-3.114 3.114-3.114h0.406c0.177 0 0.32 0.143 0.32 0.32s-0.143 0.32-0.32 0.32h-0.406c-1.364 0-2.474 1.11-2.474 2.474v19.691c0 1.364 1.11 2.474 2.474 2.474h13.931c1.364 0 2.474-1.11 2.474-2.474v-15.874l-6.292-6.292h-5.868c-0.177 0-0.32-0.143-0.32-0.32s0.143-0.32 0.32-0.32h6.001c0.085 0 0.166 0.034 0.226 0.094l6.479 6.479c0.060 0.060 0.094 0.141 0.094 0.226v16.006c0 1.717-1.397 3.114-3.114 3.114z"></path>
<path fill="#bde7fd" style="fill: var(--color3, #bde7fd)" d="M19.236 4.098v3.516c0 1.587 1.298 2.884 2.884 2.884h3.836z"></path>
<path fill="#1f212b" style="fill: var(--color2, #1f212b)" d="M25.956 10.658h-3.835c-1.679 0-3.045-1.366-3.045-3.045v-3.515c0-0.088 0.072-0.16 0.16-0.16s0.16 0.072 0.16 0.16v3.515c0 1.502 1.222 2.725 2.725 2.725h3.835c0.088 0 0.16 0.072 0.16 0.16s-0.071 0.16-0.16 0.16zM24.036 16.418c-0.088 0-0.16-0.072-0.16-0.16v-0.96c0-0.088 0.072-0.16 0.16-0.16s0.16 0.072 0.16 0.16v0.96c0 0.088-0.071 0.16-0.16 0.16zM24.036 18.978c-0.088 0-0.16-0.072-0.16-0.16v-1.92c0-0.088 0.072-0.16 0.16-0.16s0.16 0.072 0.16 0.16v1.92c0 0.088-0.071 0.16-0.16 0.16zM21.746 27.618h-11.419c-1.351 0-2.451-1.104-2.451-2.46v-16.852c0-0.816 0.404-1.578 1.082-2.039 0.073-0.050 0.173-0.030 0.222 0.042s0.031 0.173-0.042 0.222c-0.59 0.401-0.942 1.064-0.942 1.774v16.852c0 1.18 0.956 2.14 2.131 2.14h11.419c1.175 0 2.131-0.96 2.131-2.14v-5.7c0-0.088 0.072-0.16 0.16-0.16s0.16 0.072 0.16 0.16v5.7c-0.001 1.356-1.1 2.46-2.451 2.46z"></path>
<path fill="#1f212b" style="fill: var(--color2, #1f212b)" d="M12.737 4.578l-0.037 3.787c0 0.707-0.667 1.173-1.292 1.173s-1.349-0.46-1.349-1.168l0.012-4.026c0-0.418 0.514-0.784 0.896-0.784s0.75 0.368 0.75 0.786l0.007 3.465c0 0-0.027 0.213-0.322 0.206-0.162-0.004-0.366-0.114-0.325-0.29v-3.15h-0.26l-0.007 3.107c0 0.442 0.173 0.623 0.6 0.623s0.627-0.228 0.627-0.67v-3.266c0-0.727-0.435-1.12-1.1-1.12s-1.14 0.404-1.14 1.13l0.010 3.875c0 0.973 0.679 1.57 1.59 1.57s1.6-0.547 1.6-1.52v-3.73zM16.996 16.738h-7.36c-0.088 0-0.16-0.072-0.16-0.16s0.072-0.16 0.16-0.16h7.36c0.088 0 0.16 0.072 0.16 0.16s-0.071 0.16-0.16 0.16zM14.116 18.978h-4.48c-0.088 0-0.16-0.072-0.16-0.16s0.072-0.16 0.16-0.16h4.48c0.088 0 0.16 0.072 0.16 0.16s-0.071 0.16-0.16 0.16zM22.436 18.978h-7.68c-0.088 0-0.16-0.072-0.16-0.16s0.072-0.16 0.16-0.16h7.68c0.088 0 0.16 0.072 0.16 0.16s-0.071 0.16-0.16 0.16zM19.556 21.218h-3.52c-0.088 0-0.16-0.072-0.16-0.16s0.072-0.16 0.16-0.16h3.52c0.088 0 0.16 0.072 0.16 0.16s-0.071 0.16-0.16 0.16zM22.756 21.218h-2.56c-0.088 0-0.16-0.072-0.16-0.16s0.072-0.16 0.16-0.16h2.56c0.088 0 0.16 0.072 0.16 0.16s-0.071 0.16-0.16 0.16zM15.396 21.218h-5.76c-0.088 0-0.16-0.072-0.16-0.16s0.072-0.16 0.16-0.16h5.76c0.088 0 0.16 0.072 0.16 0.16s-0.071 0.16-0.16 0.16zM22.436 23.458h-4.16c-0.088 0-0.16-0.072-0.16-0.16s0.072-0.16 0.16-0.16h4.16c0.088 0 0.16 0.072 0.16 0.16s-0.071 0.16-0.16 0.16zM17.316 23.458h-7.68c-0.088 0-0.16-0.072-0.16-0.16s0.072-0.16 0.16-0.16h7.68c0.088 0 0.16 0.072 0.16 0.16s-0.071 0.16-0.16 0.16z"></path>
</symbol>
<symbol id="close" viewBox="0 0 32 32">
<path d="M17.253 16l7.369-7.369c0.146-0.17 0.222-0.389 0.213-0.613s-0.101-0.436-0.26-0.594c-0.158-0.158-0.371-0.251-0.594-0.26s-0.442 0.067-0.613 0.213l-7.369 7.369-7.369-7.378c-0.167-0.167-0.394-0.261-0.631-0.261s-0.464 0.094-0.631 0.261c-0.167 0.167-0.261 0.394-0.261 0.631s0.094 0.464 0.261 0.631l7.378 7.369-7.378 7.369c-0.093 0.080-0.169 0.178-0.222 0.288s-0.083 0.23-0.088 0.353 0.016 0.244 0.061 0.359c0.045 0.114 0.112 0.218 0.199 0.304s0.19 0.154 0.304 0.199 0.236 0.065 0.359 0.061c0.122-0.005 0.243-0.035 0.353-0.088s0.208-0.129 0.288-0.222l7.378-7.369 7.369 7.369c0.17 0.146 0.389 0.222 0.613 0.213s0.436-0.101 0.594-0.26 0.251-0.37 0.26-0.594c0.009-0.224-0.067-0.442-0.213-0.613l-7.369-7.369z"></path>
</symbol>
</defs>
</svg>
